<svg width="67" height="67" viewBox="0 0 67 67" fill="none" xmlns="http://www.w3.org/2000/svg">
<path d="M20.1 24.2174L21.8867 25.5383C22.1355 25.2112 22.2871 24.8223 22.3243 24.4151C22.3616 24.0079 22.283 23.5985 22.0976 23.2328C21.9121 22.8671 21.6269 22.5595 21.2741 22.3446C20.9213 22.1296 20.5148 22.0158 20.1 22.0158V24.2174ZM13.4 33.0237L11.6133 31.7027C11.3645 32.0298 11.2129 32.4188 11.1757 32.826C11.1384 33.2332 11.217 33.6426 11.4024 34.0083C11.5879 34.3739 11.8731 34.6815 12.2259 34.8965C12.5787 35.1114 12.9852 35.2253 13.4 35.2253V33.0237ZM8.93333 26.4189H20.1V22.0158H8.93333V26.4189ZM18.3133 22.8964L11.6133 31.7027L15.1867 34.3446L21.8867 25.5383L18.3133 22.8964ZM13.4 35.2253H15.6333V30.8221H13.4V35.2253ZM15.6333 39.6284H8.93333V44.0316H15.6333V39.6284ZM17.8667 37.4268C17.8667 38.0107 17.6314 38.5707 17.2125 38.9836C16.7937 39.3965 16.2257 39.6284 15.6333 39.6284V44.0316C17.4103 44.0316 19.1145 43.3357 20.371 42.0971C21.6274 40.8585 22.3333 39.1785 22.3333 37.4268H17.8667ZM15.6333 35.2253C16.2257 35.2253 16.7937 35.4572 17.2125 35.8701C17.6314 36.283 17.8667 36.8429 17.8667 37.4268H22.3333C22.3333 35.6751 21.6274 33.9952 20.371 32.7566C19.1145 31.518 17.4103 30.8221 15.6333 30.8221V35.2253ZM35.7333 22.0158H33.5V26.4189H35.7333V22.0158ZM26.8 28.6205V33.0237H31.2667V28.6205H26.8ZM26.8 33.0237V37.4268H31.2667V33.0237H26.8ZM33.5 30.8221H29.0333V35.2253H33.5V30.8221ZM40.2 37.4268C40.2 35.6751 39.4941 33.9952 38.2376 32.7566C36.9811 31.518 35.277 30.8221 33.5 30.8221V35.2253C34.0923 35.2253 34.6604 35.4572 35.0792 35.8701C35.498 36.283 35.7333 36.8429 35.7333 37.4268H40.2ZM33.5 44.0316C35.277 44.0316 36.9811 43.3357 38.2376 42.0971C39.4941 40.8585 40.2 39.1785 40.2 37.4268H35.7333C35.7333 38.0107 35.498 38.5707 35.0792 38.9836C34.6604 39.3965 34.0923 39.6284 33.5 39.6284V44.0316ZM33.5 39.6284C32.9077 39.6284 32.3396 39.3965 31.9208 38.9836C31.502 38.5707 31.2667 38.0107 31.2667 37.4268H26.8C26.8 39.1785 27.5059 40.8585 28.7624 42.0971C30.0189 43.3357 31.7231 44.0316 33.5 44.0316V39.6284ZM33.5 22.0158C31.7231 22.0158 30.0189 22.7116 28.7624 23.9503C27.5059 25.1889 26.8 26.8688 26.8 28.6205H31.2667C31.2667 28.0366 31.502 27.4766 31.9208 27.0638C32.3396 26.6509 32.9077 26.4189 33.5 26.4189V22.0158ZM53.6 28.6205V37.4268H58.0667V28.6205H53.6ZM49.1333 37.4268V28.6205H44.6667V37.4268H49.1333ZM51.3667 39.6284C50.7744 39.6284 50.2063 39.3965 49.7875 38.9836C49.3686 38.5707 49.1333 38.0107 49.1333 37.4268H44.6667C44.6667 39.1785 45.3726 40.8585 46.6291 42.0971C47.8855 43.3357 49.5897 44.0316 51.3667 44.0316V39.6284ZM53.6 37.4268C53.6 38.0107 53.3647 38.5707 52.9459 38.9836C52.527 39.3965 51.959 39.6284 51.3667 39.6284V44.0316C53.1436 44.0316 54.8478 43.3357 56.1043 42.0971C57.3608 40.8585 58.0667 39.1785 58.0667 37.4268H53.6ZM51.3667 26.4189C51.959 26.4189 52.527 26.6509 52.9459 27.0638C53.3647 27.4766 53.6 28.0366 53.6 28.6205H58.0667C58.0667 26.8688 57.3608 25.1889 56.1043 23.9503C54.8478 22.7116 53.1436 22.0158 51.3667 22.0158V26.4189ZM51.3667 22.0158C49.5897 22.0158 47.8855 22.7116 46.6291 23.9503C45.3726 25.1889 44.6667 26.8688 44.6667 28.6205H49.1333C49.1333 28.0366 49.3686 27.4766 49.7875 27.0638C50.2063 26.6509 50.7744 26.4189 51.3667 26.4189V22.0158ZM33.5 61.6442C25.7999 61.6442 18.4151 58.6288 12.9703 53.2614C7.52553 47.894 4.46667 40.6143 4.46667 33.0237H0C0 41.7821 3.52945 50.1818 9.81192 56.3749C16.0944 62.5681 24.6152 66.0473 33.5 66.0473V61.6442ZM62.5333 33.0237C62.5333 36.7822 61.7824 40.5039 60.3233 43.9763C58.8642 47.4487 56.7257 50.6038 54.0297 53.2614C51.3337 55.9191 48.1331 58.0273 44.6106 59.4656C41.0881 60.9039 37.3127 61.6442 33.5 61.6442V66.0473C42.3848 66.0473 50.9056 62.5681 57.1881 56.3749C63.4705 50.1818 67 41.7821 67 33.0237H62.5333ZM33.5 1.8246e-05C24.6152 1.8246e-05 16.0944 3.47929 9.81192 9.67242C3.52945 15.8656 0 24.2653 0 33.0237H4.46667C4.46667 25.433 7.52553 18.1533 12.9703 12.7859C18.4151 7.41854 25.7999 4.40317 33.5 4.40317V1.8246e-05ZM60.3 13.2095C60.8923 13.2095 61.4604 13.4414 61.8792 13.8543C62.298 14.2672 62.5333 14.8272 62.5333 15.4111H67C67 13.6594 66.2941 11.9794 65.0376 10.7408C63.7811 9.50218 62.077 8.80633 60.3 8.80633V13.2095ZM60.3 17.6126C59.7077 17.6126 59.1396 17.3807 58.7208 16.9678C58.302 16.5549 58.0667 15.995 58.0667 15.4111H53.6C53.6 17.1627 54.3059 18.8427 55.5624 20.0813C56.8189 21.3199 58.5231 22.0158 60.3 22.0158V17.6126ZM58.0667 15.4111C58.0667 14.8695 58.2632 14.3763 58.5937 13.9888L55.1857 11.1444C54.1985 12.2936 53.6 13.7863 53.6 15.4111H58.0667ZM58.5937 13.9888C58.8032 13.744 59.0644 13.5473 59.3592 13.4127C59.654 13.278 59.9751 13.2087 60.3 13.2095V8.80633C58.2453 8.80633 56.4095 9.71778 55.1857 11.1444L58.5937 13.9888ZM33.5 4.40317C42.1385 4.40317 49.8971 8.11944 55.2169 14.0285L58.558 11.1048C55.4179 7.60925 51.5599 4.81154 47.2399 2.89707C42.9199 0.982606 38.2365 -0.00489522 33.5 1.8246e-05V4.40317ZM59.6479 20.5627C61.4971 24.3319 62.5333 28.5545 62.5333 33.0237H67C67 27.872 65.8029 22.9977 63.6679 18.6474L59.6479 20.5627ZM62.5333 15.4111C62.534 15.8785 62.3837 16.3339 62.1042 16.7115C61.8248 17.0891 61.4306 17.3693 60.9789 17.5114L62.3368 21.7032C63.6905 21.2773 64.8718 20.4383 65.71 19.3073C66.5482 18.1762 67 16.8118 67 15.4111H62.5333ZM60.9789 17.5114C60.7593 17.5794 60.5303 17.6136 60.3 17.6126V22.0158C60.991 22.0172 61.6781 21.9088 62.3368 21.7032L60.9789 17.5114Z" fill="#8FBCFF"/>
</svg>
